<svg
    xmlns="http://www.w3.org/2000/svg" viewBox="0 0 305 198.895" xml:space="preserve">
    <defs>
      <linearGradient id="metallic-red" x1="0%" y1="0%" x2="100%" y2="0%">
        <stop offset="0%" style="stop-color:#e03e55;stop-opacity:1" />
        <stop offset="100%" style="stop-color:#e03e55;stop-opacity:0.6" />
      </linearGradient>
      <linearGradient id="metallic-navy" x1="0%" y1="0%" x2="100%" y2="0%">
        <stop offset="0%" style="stop-color:#1a4a73;stop-opacity:1" />
        <stop offset="100%" style="stop-color:#1a4a73;stop-opacity:0.6" />
      </linearGradient>
      <linearGradient id="metallic-purple" x1="0%" y1="0%" x2="100%" y2="0%">
        <stop offset="0%" style="stop-color:#654575;stop-opacity:1" />
        <stop offset="100%" style="stop-color:#654575;stop-opacity:0.6" />
      </linearGradient>
      <linearGradient id="metallic-green" x1="0%" y1="0%" x2="100%" y2="0%">
        <stop offset="0%" style="stop-color:#07955c;stop-opacity:1" />
        <stop offset="100%" style="stop-color:#07955c;stop-opacity:0.6" />
      </linearGradient>
    </defs>
    <path fill="var(--tongue)" d="M221.325 28.631c-.688-5.744-3.853-11.126-9.543-13.404-5.693-2.277-8.069-3.074-10.727-.851-16.021 13.418-22.929 51.781-29.802 57.585s-45.217 32.833-45.217 32.833l42.488-5.55c.007 0 53.488-64.869 52.801-70.613z"/>
    <path fill="var(--lining)" d="M278.195 46.737s1.775-2.841-2.841-4.794c-4.616-1.952-19.94-6.036-24.62-7.989C246.057 32 222.975 22.59 222.975 22.59l-2.308 7.099 57.528 17.048z"/>
    <path fill="var(--toebox-top)" stroke="var(--toebox-top)" d="M23.847 133.151s9.411-1.07 15.841-1.429c6.434-.356 22.391-1.189 30.962-3.096 8.574-1.906 16.791-4.601 16.791-4.601l12.562 12.279V150.3l-74.248-9.884-1.908-7.265z"/>
    <path fill="var(--outsole)" stroke="var(--outsole)" d="M17.87 172.297c14.566 5.379 26.633 9.77 45.014 11.18 2.707.208 5.819.445 9.177.699v-9.689h1.595v9.811c2.673.2 5.475.41 8.352.622v-10.433H83.6v10.55c2.939.215 5.937.432 8.916.644v-11.192h1.595v11.306c3.125.221 6.221.434 9.197.633V174.49h1.595v12.043c3.377.224 6.577.424 9.483.593V174.49h1.595v12.728c4.346.244 7.9.403 10.197.438v-13.164h1.596v13.171c2.33-.008 6.202-.042 10.87-.095v-13.076h1.596v13.06c3.39-.039 7.111-.085 10.936-.134v-12.926h1.597v12.904c3.604-.048 7.249-.097 10.727-.146v-12.76h1.596v12.736c3.812-.054 7.354-.105 10.35-.15v-9.214h1.599v9.188c3.479-.054 6.012-.096 6.958-.117.678-.015 2.355-.034 4.738-.057v-11.02h1.599v11.004c2.795-.023 6.296-.052 10.169-.08v-14.702h1.596v14.69c3.115-.021 6.431-.046 9.783-.067v-12.212h1.596v12.199c3.38-.021 6.771-.046 10.006-.066v-9.899h1.599v9.889l10.028-.068v-8.294h1.599v8.282c4.254-.029 7.196-.053 7.867-.063.33-.006 1.069-.029 2.102-.065v-8.534h1.596v8.477c2.46-.094 5.898-.233 9.756-.399v-8.075h1.598v8.006c3.006-.132 6.206-.277 9.367-.431v-9.425h1.597v9.349c5.938-.292 11.57-.6 15.271-.867v-7.071h.8v7.013c1.525-.117 2.646-.227 3.193-.32.837-.146 1.658-.272 2.449-.432v-7.976l-286.7-18.666c-.014-.005-2.311 9.865 12.258 15.244zM293.091 175.762v7.747c2.854-.692 5.205-2.062 6.204-6.705v-.638l-6.204-.404z"/>
    <path fill="var(--collar)" d="M277.839 45.139s2.482.177 3.729 4.616c1.246 4.438 2.952 13.087 3.163 16.309.211 3.223-42.309 34.711-42.309 34.711h-41.996s-1.948-21.72-1.237-27.226 22.725-48.297 22.725-48.297 25.741 11.364 31.959 13.316c6.212 1.954 22.466 5.841 23.966 6.571z"/>
    <path fill="#FFF" d="M293.753 86.675v.248c.147.112 0-.248 0-.248z"/>
    <path fill="var(--midfoot)" stroke="var(--midfoot-stroke, var(--midfoot))" d="M292.915 85.789c-1.257-1.907-2.517-1.35-2.517-1.35s-.011.078-.071.221c-.355.794-2.398 3.62-13.895 6.344-9.046 2.145-21.246 5.405-33.83 5.426-6.262.01-12.618-.778-18.729-2.913-12.55-4.384-19.523-7.333-22.689-8.764-.038.82-.077 1.635-.124 2.434-.434 7.414-14.667 7.489-19.993 7.845-5.323.354-12.963 2.131-16.689 4.211-3.729 2.08-10.829 9.104-15.984 14.076-5.146 4.973-16.006 7.381-16.006 7.381l-3.249-6.282-4.241 2.979v51.396l109.083-8.505 58.103-63.145 1.673-4.188v-6.037c-.103-.071-.335-.36-.842-1.129z"/>
    <path fill="var(--laces-top)" stroke="var(--laces-top-stroke, var(--laces-top))" d="M202.379 22.589c-5.504 3.019-9.604 13.141-10.812 15.974s-7.479 22.918-7.479 24.335.001 13.762-1.598 15.935c-1.602 2.173-17.58.185-23.265 3.576-5.681 3.391-12.967 11.025-15.982 13.334-3.021 2.308-18.352 10.477-18.352 10.477l4.241 8.2 3.249 6.282s10.856-2.408 16.006-7.381c5.155-4.972 12.255-11.996 15.984-14.076 3.729-2.081 11.365-3.856 16.689-4.211 5.326-.355 19.562-.431 19.993-7.845.047-.799.086-1.613.124-2.434.313-6.787.503-14.119 3.505-19.192 3.365-5.687 19.132-43.541 19.132-43.541s-15.931-2.451-21.435.567z"/>
    <path fill="var(--foxing-top)" stroke="var(--foxing-top-stroke, var(--foxing-top))" d="M276.436 91.005c11.493-2.725 13.536-5.55 13.895-6.344-.396-3.576-1.804-14.647-4.32-17.726 0 0-13.887-9.83-31.89-17.108L200.43 30.223s-5.683-1.953-7.812 1.599c-2.132 3.551-4.154 7.456-5.575 11.718 0 0-6.146 13.521 3.09 19.899 9.23 6.379 26.278 14.206 27.166 14.908S241.286 88.6 242.61 96.431c12.58-.021 24.78-3.282 33.826-5.426z"/>
    <path fill="var(--toebox-side)" stroke="var(--toebox-side-stroke, var(--toebox-side))" d="M10.795 148.462s-.046-5.189 4.003-9.595c4.049-4.406 9.05-5.717 9.05-5.717s-.354 1.549 2.858 1.905c3.213.357 25.841 2.979 31.08 2.858 5.237-.119 10.718-.239 13.457 1.189 2.735 1.431 11.551 9.289 15.838 6.788s6.656-3.975 2.968-11.596l28.187 13.031v18.569H53.024l-38.583-13.933-3.369-1.786-.277-1.713z"/>
    <g fill="var(--wings)">
        <path d="m258.95 75.686-.041-.007c-.385-.085-.827-.33-1.06-.469a6.326 6.326 0 0 1-1.107-.853l-3.356-2.017a6.89 6.89 0 0 1-.188.687l6.681 4.014c.015-.03.024-.062.048-.094.057-.15.25-.324.412-.428l-1.389-.833zM237.636 63.037a6.084 6.084 0 0 1-.83-.434 9.218 9.218 0 0 1-1.521-1.14l-.338-.201a1.614 1.614 0 0 1-.094.395.905.905 0 0 1-.137.265l6.485 3.896c.164-.169.338-.333.52-.486l-3.351-2.013a7.975 7.975 0 0 1-.734-.282zM227.985 58.402l.166-.454 5.402 3.247c.019-.201.152-.41.353-.552a.073.073 0 0 0 .026-.02l-9.871-5.931-.072.225c-.216.688-.408 2.476 2.425 4.177l1.69 1.019c-.253-.639-.294-1.228-.119-1.711zM261.426 77.176c-.008.225-.16.445-.39.564l5.433 3.263-.404.358a2.966 2.966 0 0 1-1.474.703l1.699 1.022c.521.314 1.479.577 2.43.664 1.077.099 1.948-.043 2.393-.388l.271-.207-9.958-5.979zM230.443 62.788l.036-.09-.76-.457c-.479-.343-.973-.895-1.318-1.479l-1.838-1.104c-.151.922.537 2.417 1.41 3.036.115.071.233.141.353.21.741.446 1.483.894 2.228 1.34-.221-.574-.262-1.077-.111-1.456zM261.908 81.583l-.021-.013-.623-.375-.098.092c-.312.297-.741.522-1.217.643l2.451 1.474c1.312.6 2.685.36 3.373-.186l-1.837-1.103c-.668-.007-1.37-.191-2.028-.532zM232.461 66.746l.048-.104-.33-.199c-.429-.312-.896-.849-1.248-1.435l-2.229-1.34c-.19.771.432 2.299 1.511 3.07l2.262 1.358c-.173-.522-.175-.976-.014-1.35zM257.238 81.524l-.021-.013-.4-.242-.083.089c-.334.359-.846.522-1.232.598l2.255 1.354c1.466.759 2.908.405 3.479-.093l-1.981-1.192c-.665.017-1.34-.151-2.017-.501zM252.574 81.537l-.021-.01-.021-.014-.421-.25-.068.083a1.764 1.764 0 0 1-.854.532c.722.431 1.446.87 2.194 1.319 1.14.577 2.724.544 3.159-.061l-1.855-1.114a5.166 5.166 0 0 1-2.113-.485zM234.672 70.884l.043-.098-.479-.287c-.509-.36-1.048-.979-1.414-1.613l-1.981-1.193c.001.895.505 2.141 1.476 2.817l.236.14c.719.435 1.426.858 2.12 1.277-.134-.406-.131-.758-.001-1.043zM248.282 81.331l-.034-.019-.216-.131-.058.068c-.238.312-.619.472-.915.552.854.508 1.689 1.01 2.56 1.531.922.452 2.362.379 2.732-.138l-2.069-1.242c-.742-.063-1.498-.372-2-.621zM236.602 74.5l.035-.183-.27-.162c-.418-.299-.892-.798-1.229-1.301l-2.383-1.434c-.043.796.771 2.242 2.031 3.082.653.394 1.296.779 1.958 1.174-.161-.445-.21-.85-.142-1.176z"/>
        <path d="m265.853 80.931-12.693-7.628c-.012.134-.17.371-.234.465l8.313 4.998-.244.238c-.331.323-.889.537-1.562.606l2.671 1.604c1.581.826 3.002.367 3.749-.283zM229.957 61.902l2.579 1.55c-.204-.561-.233-1.123-.091-1.634l.078-.26 8.126 4.884c.054-.109.262-.354.358-.43L234.1 61.87a.88.88 0 0 1-.092-.055l-5.604-3.37c-.289.859.362 2.61 1.553 3.457zM259.534 81.607c.512-.07.99-.286 1.318-.59l-2.306-1.386a5.81 5.81 0 0 1-.589-.063 4.555 4.555 0 0 1-1.269-.394l-.025-.014-.391-.235-.096.104c-.259.291-.766.487-1.429.559l2.653 1.596c.739.375 1.454.518 2.134.423zM232.41 66.138l.724.438 1.846 1.106c-.306-.643-.379-1.162-.206-1.544l.048-.104-.777-.47-.021-.012c-.385-.291-.805-.787-1.123-1.33l-2.084-1.252c-.318.877.729 2.54 1.593 3.168zM256.406 81.101l-2.481-1.493c-.623-.028-1.206-.152-1.597-.34l-.039-.019-.531-.32-.125.158c-.324.404-.936.542-1.403.587l2.507 1.506c1.206.556 2.962.654 3.669-.079zM234.469 70.183c.061.036.121.075.185.112l2.343 1.407c-.187-.421-.358-1.007-.207-1.495l.073-.247-.278-.17-.026-.018c-.449-.354-.908-.99-1.086-1.251l-2.639-1.586c-.361.876.591 2.509 1.635 3.248zM235.364 72.484c.314.525.783 1.048 1.229 1.364a2604.929 2604.929 0 0 1 2.627 1.58c-.141-.353-.291-.843-.231-1.271l.036-.25-.707-.426-.021-.019a4.443 4.443 0 0 1-.835-.931l-2.419-1.455c-.143.33-.03.83.321 1.408zM251.712 81.099l-2.385-1.433c-.104-.013-.204-.024-.306-.042a4.168 4.168 0 0 1-1.078-.337l-.039-.021-.722-.435-.175.134a2.54 2.54 0 0 1-1.132.479c.771.468 1.615.975 2.562 1.544.877.43 2.454 1.016 3.275.111zM245.178 79.348a3.864 3.864 0 0 1-1.721-.411l-.021-.012c-.069-.043-.145-.086-.218-.13l-.152-.091-.069.079c-.312.344-.807.547-1.18.66.624.38 1.357.823 2.743 1.656.618.308 1.31.433 1.938.353.536-.07.99-.284 1.219-.576l-2.539-1.528zM241.137 77.43a24.714 24.714 0 0 0-.399-.239c-.067-.042-.141-.085-.212-.127l-.021-.013-.021-.017c-.265-.215-.542-.561-.777-.976l-2.62-1.575c-.211.969.699 2.447 1.396 2.943.015.005.023.014.034.019 1.249.75 1.956 1.181 2.531 1.527-.074-.363-.062-.812.031-1.271l.058-.271z"/>
        <path d="m240.509 66.648-7.702-4.628c-.391.987.737 2.652 1.466 3.199l5.312 3.191c.158-.437.431-.981.604-1.276.162-.271.201-.327.298-.456l.022-.03zM256.88 78.803c1.218.604 3.146.573 3.781-.046l-7.865-4.726c-.014.029-.027.057-.04.08-.055.115-.092.19-.234.432a7.85 7.85 0 0 1-.846 1.136l5.204 3.124zM236.795 69.485l.385.23 1.983 1.192a7.09 7.09 0 0 1 .263-2l-4.287-2.574c-.347.852 1.077 2.698 1.656 3.152zM255.852 78.778l-4.538-2.727a7.095 7.095 0 0 1-1.659 1.177c.89.535 1.82 1.098 2.822 1.7.989.468 2.863.383 3.375-.15zM238.543 73.168c.102.059.199.118.296.176l1.043.628a7.174 7.174 0 0 1-.697-2.562l-1.938-1.166c-.284.929.674 2.417 1.296 2.924zM251.364 78.726l-2.145-1.289a7.158 7.158 0 0 1-2.622.59c.462.277.959.577 1.511.907 1.085.514 2.747.403 3.256-.208zM242.081 78.06a1.655 1.655 0 0 0-.463-.202c-.051.217-.126.717.012 1.097.219-.06.71-.213.977-.498a3.274 3.274 0 0 0-.526-.397zM240.677 76.841c.989.594 1.224.757 1.408.892.036.021.073.041.107.063.163.099.333.218.502.353.227.14.513.315.886.538.892.472 2.294.62 3.146-.023l-1.109-.669a7.12 7.12 0 0 1-2.968-.989 7.133 7.133 0 0 1-2.266-2.154l-.993-.596c-.098.853.76 2.179 1.273 2.58.007.001.01.003.014.005z"/>
        <path d="M247.49 77.472c-.188-.262-1.706-2.522-2.188-6.281a2.052 2.052 0 0 0-1.386.938c-1.034 1.612-.315 4.688-.271 4.879.518.182 2.269.738 3.845.464z"/>
        <path d="M242.954 76.653c-.375-2.23-.188-3.89.558-4.928a2.611 2.611 0 0 1 1.73-1.087c-.03-.321-.055-.644-.065-.963a14.861 14.861 0 0 0-5.519 1.394 6.651 6.651 0 0 0 3.296 5.584zM250.078 65.357c-.077.113-.566.823-1.318 1.541-.732.704-1.868 1.554-3.112 1.608-.009.205-.012.417-.011.627 2.541-.019 5.023.552 7.381 1.697a6.683 6.683 0 0 0-2.94-5.473z"/>
        <path d="M246.389 64.209c-.057.153-.568 1.616-.715 3.76.807-.03 2.346-.464 3.742-3.005a6.688 6.688 0 0 0-3.027-.755zM252.062 74.332a6.633 6.633 0 0 0 .938-2.938c-.226-.13-3.169-1.826-7.354-1.735.015.314.031.631.063.942.497-.096 1.04.03 1.618.377 1.026.62 2.001 1.846 2.631 2.763a19.017 19.017 0 0 1 1.128 1.848c.374-.377.699-.799.976-1.257z"/>
        <path d="M245.766 71.094a14.028 14.028 0 0 0 2.382 6.229 6.667 6.667 0 0 0 2.448-1.283c-1.061-2.296-2.197-3.822-3.376-4.529-.625-.377-1.135-.437-1.454-.417zM242.862 65.184c.017.152.15 1.642 1.411 2.396a2.9 2.9 0 0 0 .916.351c.065-1.217.252-2.459.55-3.693a6.74 6.74 0 0 0-2.877.946z"/>
        <path d="M242.305 65.562a6.617 6.617 0 0 0-1.694 1.89 6.68 6.68 0 0 0-.935 2.894c.265-.125 2.394-1.089 5.487-1.201-.005-.225-.003-.446.004-.658a4.271 4.271 0 0 1-1.069-.467c-.671-.404-1.522-1.155-1.793-2.458zM261.093 76.878a.673.673 0 0 0-.189-.179c-.196-.121-.366-.026-.368-.025-.247.129-.385.328-.396.367l-.009.021a.3.3 0 0 0-.062.164c-.009.127.103.228.311.295.146.046.268.071.354.07.13 0 .253-.058.35-.163a.43.43 0 0 0 .123-.309.587.587 0 0 0-.114-.241zM234.133 61.795a.156.156 0 0 0 .024.012l.008.004.011.006.023.016c.08.05.157.062.225.039.09-.031.162-.13.217-.288a1.36 1.36 0 0 0 .085-.355.494.494 0 0 0-.247-.421.374.374 0 0 0-.212-.06.502.502 0 0 0-.246.101c-.37.26-.226.544-.221.555.106.214.263.349.333.391zM249.944 62.727a.912.912 0 0 0 .062.035c.429.229.833.126 1.095 0 .332-.157.63-.447.823-.792.345-.716.377-1.646-.322-2.118a.23.23 0 0 0-.033-.021c-.688-.414-1.514-.17-1.966.58-.45.748-.423 1.859.341 2.316zM254.506 68.196c.135.201.279.348.438.447l.021.011c.56.337 1.227.329 1.737-.019.695-.475.893-1.17.604-2.19-.005-.015-.011-.032-.015-.049-.029-.109-.061-.215-.133-.261a.173.173 0 0 0-.114-.021c-.312.034-.647.203-.945.351a5.235 5.235 0 0 1-.307.146l-1.321.591-.091.033c-.096.035-.216.079-.256.12l-.009.009.007.01c.128.355.254.623.384.822zM250.656 64.889a12.17 12.17 0 0 0-.446-.295c-2.189-1.38-4.826-1.204-7.146-1.052-.139.009-.271.018-.411.025-1.753.112-2.89.317-2.897.321l-.005.031 2.14 1.286.011.008.011-.012c.008-.007.604-.608 1.691-1.024 1.004-.385 2.644-.685 4.734.068.008.002.664.225 1.472.711.925.556 2.158 1.524 2.773 2.986.011.017 1.041 1.74.801 4.147v.011l2.211 1.333.021-.022c-.017-.032-1.521-3.233-2.148-4.705-.02-.027-1.145-2.672-2.812-3.817zM237.363 59.833c-.012.066.009.084.057.115l.36.217c.099.058.151.071.241-.039.172-.212.235-.741.231-.885l-.002-.021-.021.003c-.166.017-.821.339-.866.61z"/>
        <path d="m234.133 59.982-.147.434.019.006c.276.081.464.158.639.263.167.101.32.224.539.414a9.196 9.196 0 0 0 1.726 1.343c.469.281.783.41.785.412 2.24.979 3.731.531 3.743.527 3.239-.551 5.521-.463 6.271-.34.947.119 1.812.41 2.57.866 2.412 1.449 3.513 4.308 4.57 7.072.137.357.279.727.421 1.083.911 1.682 1.962 2.554 2.688 2.986.561.337.945.426.95.427 1.112.176 1.812.521 2.13.711.137.083.206.14.206.14l.014.01 3.122-3.509.009-.01-.006-.01c-.144-.279-.387-.522-.756-.745-.456-.273-1.008-.459-1.451-.606l-.067-.022c-.541-.182-1.062-.366-1.492-.625-.486-.292-.836-.663-1.13-1.204-.672-1.229-1.377-3.369-1.383-3.391-1.63-4.431-4.264-6.283-5.029-6.745a2.197 2.197 0 0 0-.188-.104c-1.981-1.254-4.296-1.306-4.318-1.305-1.805-.175-6.503.382-6.554.389-1.336.312-2.231-.029-2.239-.032a2.647 2.647 0 0 1-.271-.146c-.891-.532-2.379-1.872-2.396-1.886a4.07 4.07 0 0 0-.501-.363c-.371-.223-.669-.285-.884-.184-.242.112-.291.382-.294.391l-1.296 3.753zm14.955.083c.49-.694 1.391-.999 2.296-.775.181.044.351.113.504.206.15.09.287.202.41.335.479.52.629 1.273.392 2.017a1.84 1.84 0 0 1-.357.671c-.482.575-1.237.891-1.938.802-.332-.043-.647-.2-.855-.325-.062-.035-.118-.073-.177-.112-.402-.284-.651-.654-.729-1.104-.101-.54.065-1.165.454-1.715zm6.082 4.429c-.045.005-.09.008-.134.009-.31.004-.566-.115-.83-.245-.015-.006-.033-.021-.062-.036l-.062-.04c-.048-.028-.067-.035-.082-.025-.015.007-.021.009-.086.38-.02.094-.032.177-.038.199l-.025.106c-.127.472-.25.945-.373 1.418-.039.152-.014.255.08.312.229.139.791-.093.854-.119l.374-.157c.697-.294 1.42-.598 2.133-.901a.225.225 0 0 0 .115-.092c.083-.104.107-.089.116-.083.022.013.045.049.063.092.018.03.034.063.055.097l.255.503.197.444.079.21.034.11.021.093.049.227c.011.078.021.154.034.23l.014.118.007.114v.115l-.006.113-.021.146-.024.145c-.016.047-.025.094-.039.142l-.021.07-.065.186-.067.146c-.014.022-.023.044-.034.064l-.036.06-.042.062-.034.045-.05.065-.148.151c-.021.015-.037.029-.059.046l-.056.045c-.021.014-.038.028-.062.045l-.057.039-.122.076-.128.068-.114.058c-.039.018-.078.035-.112.052-.021.007-.042.017-.062.022-.021.007-.04.016-.061.021l-.062.019c-.021.004-.041.011-.06.015l-.069.013-.071.011a2.604 2.604 0 0 1-.294.001l-.145-.014-.026-.004-.318-.082-.208-.068-.095-.021-.104-.045-.105-.054-.098-.057-.093-.06-.087-.065-.055-.044-.106-.099-.072-.081-.095-.128-.1-.154-.098-.168-1.153-2.316c-.081-.167-.098-.295-.055-.434l.666-2.123c.029.014.058.029.091.048.084.051.17.115.25.176.083.061.168.125.253.177.155.093.365.184.613.073.169-.077.381-.247.454-.427.146-.352-.122-.775-.342-.974-.022-.022-.052-.041-.07-.055-.163-.097-.307-.007-.417.081l-2.169 1.757-.014.012c-.025.021-.064.052-.102.138l-.017.061c-.028.096-.042.134-.091.122-.02-.004-.03-.01-.054-.021-.17-.104-.506-.51-.543-.688-.007-.024-.004-.043.003-.055.021-.026.077-.041.179-.057a.167.167 0 0 0 .093-.043l2.552-1.992.142-.146c.104-.106.127-.127.171-.103a.855.855 0 0 1 .099.087c.019.018.04.035.062.057.596.548 1.209 1.342 1.165 1.924a3 3 0 0 1-.021.119c-.085.393-.384.686-.752.741zm1.348 8.735-.531-.815c.051-.022.102-.041.146-.017l.004.002c.007.005.01.01.015.011.021.014.033.005.052-.006l.014-.009.047-.028c.062-.04.55-.443.783-.709.083-.093.12-.186.105-.281-.021-.184-.425-.848-.585-.959a.315.315 0 0 0-.188-.063l-.088-.001h-.097l-.217.004a1.698 1.698 0 0 0-.119.008l-.104.011c-.312.033-.345.073-.474.225-.022.03-.056.064-.091.103l-.002.003-.01.009a.066.066 0 0 1-.015.009l-.02.011-.389-.646a.68.68 0 0 1 .18-.034c.037-.004.075-.007.11-.015 1.257-.144 2.392-.276 3.562-.442l.004-.001.092-.071.024-.024a.387.387 0 0 0 .062-.078c.009-.019.019-.027.026-.03.011-.003.021 0 .034.008.028.019.08.071.157.223v.004c.012.02.021.039.027.058l.021.054.045.123c.005.018.011.034.014.051l.012.034c.001.013.007.026.009.039.004.02.009.039.011.059-.863 1.032-1.729 2.063-2.593 3.102-.003.021-.018.049-.033.078zm-8.033-14.778a.215.215 0 0 1-.049.027c-.077.033-.083.054-.095.126l-.204 1.437c-.076.528-.154 1.059-.216 1.511-.083.579-.156.949-.668 1.238-.188.093-.279.115-.476.061.021-.023.036-.053.062-.082.021-.038.048-.071.069-.1.094-.16.271-.502.333-.774.017-.071.021-.147.029-.223.007-.059.017-.12.023-.179.163-.903.289-1.845.411-2.754l.029-.241c.009-.046-.004-.072-.032-.091-.01-.005-.016-.007-.021-.012-.021-.01-.05-.024-.064-.046-.039-.043-.055-.085-.041-.116.012-.026.044-.043.091-.048.019-.002.042-.002.064-.002h.015l.056-.001h.165l.126.006c.15.018.265.032.378.078.014.005.024.012.034.018.021.015.054.038.053.069.004.031-.025.066-.072.098zm-10.002-.151.013-.032a.285.285 0 0 0 .021-.096c.002-.023.008-.039.019-.044.018-.008.056-.012.152.047.049.03.096.064.113.079l.082.068.091.088.104.114.031.05-.981 3.92-.002.096-.652-.393-.182-.108c.03-.042.071-.084.126-.076.031.005.041.003.06-.022 0-.005.005-.01.01-.017l.028-.046c.036-.061.302-.636.396-.979.03-.12.024-.221-.023-.303-.063-.102-.329-.289-.547-.419-.18-.107-.326-.178-.397-.188a.309.309 0 0 0-.194.026l-.078.035-.277.14-.104.06-.092.056c-.266.165-.277.215-.323.408-.014.038-.021.081-.032.13l-.026.044-.005.004-.628-.413c.043-.046.096-.077.145-.107.031-.02.065-.04.096-.062a150.596 150.596 0 0 0 3.017-1.948l.004-.002.035-.11zm2.391.78a.284.284 0 0 0-.062.066l-.023.045-.045.1-.048.116-.326 3.316.007.038.018.058.021.031.022.029.009.01.017.025.005.012-.001.036-.003.018-.004.009-.861-.13-.108-.026.003-.018.015-.043.008-.016.01-.015.027-.024.013-.006.057-.015.048-.257.388-3.308.001-.006-.074-.116c-.021-.037-.027-.066-.021-.082.009-.015.031-.022.067-.021l.188-.002.218.011.104.012.089.016.076.022.149.057c.018.006.023.011.031.016.019.01.02.015.02.015l-.035.027zm3.236 1.587-.102.085-.271.201.341.428.349.392.257.245.296.257.329.275-.104.056-.062.025-.062.022-.065.021-.104.021-.036.006-.164-.002-.075-.013-.083-.027-.047-.03-.133-.116-1.43-1.562-.019-.021c-.031-.032-.058-.06-.058-.083.004-.014.021-.029.046-.044.111-.076.245-.134.372-.191.317-.145.626-.281.669-.656.029-.282-.059-.486-.253-.605a1.11 1.11 0 0 0-.46-.127c-.19-.015-.479-.042-.642.124l-.073.082.418 3.221.005.009c.05.08.062.144.042.187-.062.108-.348.104-.556.1-.066-.001-.137-.003-.188 0a.048.048 0 0 1-.029-.006.13.13 0 0 1-.032-.03c-.029-.07.004-.192.024-.256l.014-.035-.381-3.226a.576.576 0 0 0-.083-.221c-.029-.054-.054-.096-.04-.123.015-.031.088-.054.216-.07.152-.018.309-.042.472-.069.521-.087 1.057-.177 1.521-.011.077.028.146.061.208.098.167.101.288.24.365.43a.889.889 0 0 1 .053.562c-.06.244-.198.455-.445.677zm17.201 12.9.726-1.403-.003-.007-.007-.027c-.034-.191-.009-.217-.007-.219.003-.002.009 0 .016.001.138.069.253.136.376.206l.192.109c.017.008.021.016.021.022.001.015-.033.04-.057.057l-.011.006a.38.38 0 0 1-.073.042.137.137 0 0 0-.075.079c-.003.007-.01.013-.014.021l-1.676 2.952c-.017.032-.033.061-.043.085-.029.051-.044.08-.062.087-.025.007-.069-.021-.15-.069l-.047-.027c-.082-.049-.09-.058-.111-.186l-.479-3.023c-.007-.04-.018-.081-.021-.124a2.263 2.263 0 0 0-.092-.436l-.011-.033-.021.029c-.038.057-.091.141-.143.222-.052.08-.104.164-.146.221l-.215.35-.22.413-.232.468c-.021.046-.052.101-.088.165-.137.241-.324.571-.202.812.011.025.008.037.007.038s-.012.004-.03-.003a2.927 2.927 0 0 1-.464-.214 1.566 1.566 0 0 1-.191-.137.167.167 0 0 1-.031-.033c.003-.003.019-.012.025-.019a.2.2 0 0 1 .034-.025l.067-.055 1.688-2.984a.422.422 0 0 0 .025-.172c.002-.044.003-.088.015-.13l.723.397c.015.038.032.077.045.115l.009.021c.141.997.271 1.993.41 2.99l-.001.009.007.004c.054.029.086.041.115.034.103-.022.27-.331.422-.629z"/>
        <path d="m258.1 70.253-.017-.005c-.158-.062-.89-.057-1.047.169-.04.056-.03.079.001.127l.229.354c.027.04.048.068.074.084.04.024.086.02.159-.014.247-.117.538-.565.592-.699l.009-.016z"/>
    </g>
    <path fill="url(#metallic-red)" stroke="var(--swoosh-stroke, var(--swoosh))" d="m293.753 92.96-1.257 1.117s-48.741 18.854-60.477 22.065c-11.73 3.212-35.775 9.521-43.85 5.124-6.418-3.495-1.262-19.647-1.262-19.647s-23.966 13.854-17.168 31.321c6.139 15.782 44.146-.046 60.201-5.004 16.06-4.958 60.536-25.201 60.536-25.201l3.829-1.961v-7.257l-.552-.557z"/>
    <path fill="var(--foxing-bottom)" stroke="var(--foxing-bottom-stroke, var(--foxing-bottom))" d="M297.673,153.233c0,0,2.713-1.956,2.336-12.989c0,0-3.867-34.497-4.146-34.916s0-5.446,0-5.446l-1.258-0.697  c0,0,0,1.955-3.354,3.354c-3.352,1.396-11.875,5.446-22.629,9.497c0,0-20.004,6.845-21.592,12.291  c-1.59,5.443-9.131,21.646-10.527,24.58c-1.396,2.933-5.307,8.799-5.307,8.799L297.673,153.233z"/>
    <path fill="var(--laces-bottom)" stroke="var(--laces-bottom-stroke, var(--laces-bottom))" d="M144.421,148.688c-6.784-10.119-9.629-18.103-11.177-25.362c-1.549-7.267,0.238-16.672-1.786-19.292  c-2.021-2.62-5.236-1.312-6.431-0.952c-1.191,0.356-31.438,16.435-36.319,18.935c-4.883,2.5-2.021,8.336-2.021,8.336  s13.099,13.576,17.624,18.577c4.521,5.001,12.623,16.04,12.623,16.04h38.827L144.421,148.688z"/>
    <path fill="var(--midsole)" stroke="var(--midsole-stroke, var(--midsole))" d="M11.079 147.329s-.517 1.427.282 1.826c.802.398 24.588 11.398 66.736 12.271 42.151.872 52.819 2.907 75.833.872 23.01-2.035 104.43-7.047 104.43-7.047l38.351-2.546s3.97-.886 3.97 1.858.457 6.1 0 11.663c-.457 5.564-1.22 10.215-1.22 10.215s-4.954 1.981-16.392 3.201c-11.435 1.22-54.958 1.982-58.007 1.982s-49.24.851-64.942 1.079c-15.708.229-76.391-1.672-84.621-2.893-8.233-1.22-15.854-1.979-27.438-5.333-11.587-3.354-32.092-10.748-34.989-12.044-2.896-1.296-7.62-3.202-7.852-5.794-.229-2.592 2.059-5.642 2.668-6.479.612-.834 3.191-2.831 3.191-2.831z"/>
    <path fill="var(--tongue-tag)" d="M205.801 12.543c-1.614-.193-3.711.166-5.025 1.266-3.947 3.31-7.908 8.988-10.89 14.467.934.136 2.886.385 3.294.82 3.014-6.701 9.6-13.8 12.621-16.553z"/>
    <g fill="var(--holes)">
        <circle cx="201.269" cy="42.333" r="1.976"/>
        <circle cx="196.985" cy="53" r="1.976"/>
        <circle cx="190.149" cy="83.781" r="1.976"/>
        <circle cx="97.042" cy="124.026" r="1.976"/>
        <circle cx="111.328" cy="119.291" r="1.976"/>
        <circle cx="122.346" cy="113.162" r="1.976"/>
        <circle cx="138.283" cy="108.478" r="1.976"/>
        <circle cx="150.854" cy="98.676" r="1.978"/>
        <circle cx="166.555" cy="89.252" r="1.976"/>
    </g>
</svg>